<svg width="24" height="24" viewBox="0 0 24 24" fill="none" xmlns="http://www.w3.org/2000/svg">
<path d="M9.58599 16.818C9.29221 16.1782 8.08892 15.2441 7.78951 15.1093C7.10456 14.7265 6.30828 14.5731 5.52414 14.673C4.73999 14.7729 4.01182 15.1205 3.45253 15.6619C2.89325 16.2033 2.53411 16.9082 2.43081 17.6673C2.32751 18.4264 2.48582 19.1973 2.8812 19.8605C3.27657 20.5236 3.88692 21.0419 4.61757 21.335C5.34823 21.6281 6.15837 21.6797 6.92236 21.4816C7.68635 21.2836 8.3615 20.847 8.84309 20.2397C9.32469 19.6323 9.58582 18.8881 9.586 18.1224V5.91014C9.586 5.44266 9.90989 5.03755 10.3659 4.93466L21.6 2.39999L21.5999 15.64M21.5999 15.64L21.6 16.9446C21.5998 17.7103 21.3387 18.4545 20.8571 19.0619C20.3755 19.6692 19.7004 20.1058 18.9364 20.3038C18.1724 20.5019 17.3623 20.4503 16.6316 20.1572C15.9009 19.8641 15.2906 19.3458 14.8952 18.6827C14.4998 18.0195 14.3415 17.2486 14.4448 16.4895C14.5481 15.7304 14.9073 15.0255 15.4666 14.4841C16.0258 13.9427 16.754 13.5951 17.5382 13.4952C18.3223 13.3953 19.1186 13.5486 19.8035 13.9315C20.1029 14.0663 21.3059 15.0002 21.5999 15.64Z" stroke="white" stroke-width="2" stroke-linecap="round" stroke-linejoin="round"/>
</svg>
