<svg width="24" height="24" viewBox="0 0 24 24" fill="none" xmlns="http://www.w3.org/2000/svg">
<path d="M21.25 7.50599V14.113C21.2503 14.6337 21.1479 15.1493 20.9488 15.6304C20.7497 16.1115 20.4578 16.5487 20.0896 16.9169C19.7215 17.2851 19.2844 17.5772 18.8034 17.7764C18.3223 17.9756 17.8067 18.0781 17.286 18.078H14.643L12.463 20.258C12.4036 20.321 12.3319 20.3711 12.2524 20.4054C12.1728 20.4397 12.0871 20.4574 12.0005 20.4574C11.9139 20.4574 11.8282 20.4397 11.7487 20.4054C11.6692 20.3711 11.5975 20.321 11.538 20.258L9.35802 18.078H6.71302C6.19238 18.078 5.67684 17.9754 5.19584 17.7762C4.71484 17.5769 4.2778 17.2848 3.9097 16.9166C3.54159 16.5484 3.24963 16.1113 3.05048 15.6303C2.85133 15.1492 2.74889 14.6336 2.74902 14.113V7.50599C2.74902 6.45467 3.16666 5.44642 3.91005 4.70302C4.65345 3.95963 5.66171 3.54199 6.71302 3.54199H17.285C18.3363 3.54199 19.3446 3.95963 20.088 4.70302C20.8314 5.44642 21.25 6.45467 21.25 7.50599Z" stroke="#DFDFDF" stroke-width="1.5" stroke-linecap="round" stroke-linejoin="round"/>
<path d="M11.9999 11.338C12.0866 11.338 12.1725 11.3209 12.2526 11.2877C12.3328 11.2545 12.4056 11.2058 12.4669 11.1445C12.5282 11.0832 12.5769 11.0104 12.6101 10.9302C12.6433 10.8501 12.6604 10.7642 12.6604 10.6775C12.6604 10.5907 12.6433 10.5048 12.6101 10.4247C12.5769 10.3446 12.5282 10.2718 12.4669 10.2104C12.4056 10.1491 12.3328 10.1004 12.2526 10.0672C12.1725 10.0341 12.0866 10.017 11.9999 10.017C11.8247 10.017 11.6567 10.0866 11.5328 10.2104C11.4089 10.3343 11.3394 10.5023 11.3394 10.6775C11.3394 10.8526 11.4089 11.0206 11.5328 11.1445C11.6567 11.2684 11.8247 11.338 11.9999 11.338ZM16.6249 11.338C16.7116 11.338 16.7975 11.3209 16.8776 11.2877C16.9578 11.2545 17.0306 11.2058 17.0919 11.1445C17.1532 11.0832 17.2019 11.0104 17.2351 10.9302C17.2683 10.8501 17.2854 10.7642 17.2854 10.6775C17.2854 10.5907 17.2683 10.5048 17.2351 10.4247C17.2019 10.3446 17.1532 10.2718 17.0919 10.2104C17.0306 10.1491 16.9578 10.1004 16.8776 10.0672C16.7975 10.0341 16.7116 10.017 16.6249 10.017C16.4497 10.017 16.2817 10.0866 16.1578 10.2104C16.0339 10.3343 15.9644 10.5023 15.9644 10.6775C15.9644 10.8526 16.0339 11.0206 16.1578 11.1445C16.2817 11.2684 16.4497 11.338 16.6249 11.338ZM7.37486 11.338C7.46159 11.338 7.54748 11.3209 7.62762 11.2877C7.70775 11.2545 7.78057 11.2058 7.8419 11.1445C7.90323 11.0832 7.95188 11.0104 7.98508 10.9302C8.01827 10.8501 8.03536 10.7642 8.03536 10.6775C8.03536 10.5907 8.01827 10.5048 7.98508 10.4247C7.95188 10.3446 7.90323 10.2718 7.8419 10.2104C7.78057 10.1491 7.70775 10.1004 7.62762 10.0672C7.54748 10.0341 7.46159 10.017 7.37486 10.017C7.19968 10.017 7.03168 10.0866 6.90781 10.2104C6.78394 10.3343 6.71436 10.5023 6.71436 10.6775C6.71436 10.8526 6.78394 11.0206 6.90781 11.1445C7.03168 11.2684 7.19968 11.338 7.37486 11.338Z" stroke="#DFDFDF" stroke-width="1.5" stroke-linecap="round" stroke-linejoin="round"/>
</svg>
