<svg width="19" height="22" viewBox="0 0 19 22" fill="none" xmlns="http://www.w3.org/2000/svg">
<path d="M5 7H11V5C11 4.16667 10.7083 3.45833 10.125 2.875C9.54167 2.29167 8.83333 2 8 2C7.16667 2 6.45833 2.29167 5.875 2.875C5.29167 3.45833 5 4.16667 5 5V7ZM14 22C12.6167 22 11.4377 21.5123 10.463 20.537C9.48833 19.5617 9.00067 18.3827 9 17C8.99933 15.6173 9.487 14.4383 10.463 13.463C11.439 12.4877 12.618 12 14 12C15.382 12 16.5613 12.4877 17.538 13.463C18.5147 14.4383 19.002 15.6173 19 17C18.998 18.3827 18.5103 19.562 17.537 20.538C16.5637 21.514 15.3847 22.0013 14 22ZM15.65 19.35L16.35 18.65L14.5 16.8V14H13.5V17.2L15.65 19.35ZM8.25 21H2C1.45 21 0.979333 20.8043 0.588 20.413C0.196666 20.0217 0.000666667 19.5507 0 19V9C0 8.45 0.196 7.97933 0.588 7.588C0.98 7.19667 1.45067 7.00067 2 7H3V5C3 3.61667 3.48767 2.43767 4.463 1.463C5.43833 0.488334 6.61733 0.000667349 8 6.82594e-07C9.38267 -0.000665984 10.562 0.487001 11.538 1.463C12.514 2.439 13.0013 3.618 13 5V7H14C14.55 7 15.021 7.196 15.413 7.588C15.805 7.98 16.0007 8.45067 16 9V10.3C15.6667 10.1833 15.3333 10.104 15 10.062C14.6667 10.02 14.3333 9.99933 14 10C12.05 10 10.396 10.6793 9.038 12.038C7.68 13.3967 7.00067 15.0507 7 17C7 17.7167 7.11267 18.4127 7.338 19.088C7.56333 19.7633 7.86733 20.4007 8.25 21Z" fill="white"/>
</svg>
